<?xml version="1.0"?>
<svg xmlns="http://www.w3.org/2000/svg" xmlns:xlink="http://www.w3.org/1999/xlink" version="1.1" id="Capa_1" x="0px" y="0px" viewBox="0 0 512 512" style="enable-background:new 0 0 512 512;" xml:space="preserve" width="512px" height="512px"><g><g>
	<g>
		<g>
			<circle cx="212" cy="210" r="20" data-original="#000000" class="active-path" data-old_color="#000000" fill="#038DFE"/>
			<path d="M498.88,413.387c-2.198-0.899-15.755-7.078-15.755-22.688v-30.02c0-42.221-29.603-78.047-69.125-87.525V260     c0-11.046-8.954-20-20-20c-11.046,0-20,8.954-20,20v12.922c-40.022,9.109-70.125,45.18-70.125,87.757v30.02     c0,15.611-13.557,21.79-15.755,22.688c-8.156,2.72-13.12,10.171-13.12,18.783c0,12.764,4.539,26.695,12.143,37.267     C297.608,483.987,313.218,492,331.099,492H374c0,11.027,8.973,20,20,20c11.027,0,20-8.973,20-20h41.901     c17.881,0,33.492-8.013,43.956-22.563C507.461,458.865,512,444.934,512,432.17C512,423.558,507.036,416.106,498.88,413.387z      M455.901,452H331.098c-7.438,0-11.454-4.731-13.614-9.572c13.241-9.737,26.391-26.605,26.391-51.729v-30.02     c0-27.193,22.092-49.613,49.246-49.977c0.127-0.002,0.253-0.005,0.379-0.009c0.126,0.004,0.252,0.007,0.379,0.009     c27.154,0.365,49.246,22.785,49.246,49.977v30.02c0,25.125,13.151,41.993,26.391,51.729C467.355,447.269,463.34,452,455.901,452z     " data-original="#000000" class="active-path" data-old_color="#000000" fill="#038DFE"/>
			<circle cx="212" cy="297" r="20" data-original="#000000" class="active-path" data-old_color="#000000" fill="#038DFE"/>
			<circle cx="212" cy="384" r="20" data-original="#000000" class="active-path" data-old_color="#000000" fill="#038DFE"/>
			<circle cx="125" cy="210" r="20" data-original="#000000" class="active-path" data-old_color="#000000" fill="#038DFE"/>
			<circle cx="125" cy="384" r="20" data-original="#000000" class="active-path" data-old_color="#000000" fill="#038DFE"/>
			<circle cx="299" cy="210" r="20" data-original="#000000" class="active-path" data-old_color="#000000" fill="#038DFE"/>
			<circle cx="125" cy="297" r="20" data-original="#000000" class="active-path" data-old_color="#000000" fill="#038DFE"/>
			<path d="M432,40h-26V20c0-11.046-8.954-20-20-20c-11.046,0-20,8.954-20,20v20h-91V20c0-11.046-8.954-20-20-20     c-11.046,0-20,8.954-20,20v20h-90V20c0-11.046-8.954-20-20-20s-20,8.954-20,20v20H80C35.888,40,0,75.888,0,120v312     c0,44.112,35.888,80,80,80h131c11.046,0,20-8.954,20-20c0-11.046-8.954-20-20-20H80c-22.056,0-40-17.944-40-40V120     c0-22.056,17.944-40,40-40h25v20c0,11.046,8.954,20,20,20s20-8.954,20-20V80h90v20c0,11.046,8.954,20,20,20s20-8.954,20-20V80h91     v20c0,11.046,8.954,20,20,20c11.046,0,20-8.954,20-20V80h26c22.056,0,40,17.944,40,40v120c0,11.046,8.954,20,20,20     c11.046,0,20-8.954,20-20V120C512,75.888,476.112,40,432,40z" data-original="#000000" class="active-path" data-old_color="#000000" fill="#038DFE"/>
		</g>
	</g>
</g></g> </svg>
