<?xml version="1.0"?>
<svg xmlns="http://www.w3.org/2000/svg" xmlns:xlink="http://www.w3.org/1999/xlink" version="1.1" id="Capa_1" x="0px" y="0px" viewBox="0 0 512 512" style="enable-background:new 0 0 512 512;" xml:space="preserve" width="512px" height="512px"><g><g>
	<g>
		<path d="M435.49,151.568c-1.86-1.859-4.44-2.92-7.08-2.92c-2.631,0-5.2,1.061-7.07,2.92c-1.86,1.87-2.93,4.44-2.93,7.08    c0,2.631,1.069,5.21,2.93,7.07c1.87,1.86,4.45,2.93,7.07,2.93c2.64,0,5.21-1.069,7.08-2.93c1.859-1.86,2.92-4.439,2.92-7.07    C438.41,156.008,437.349,153.438,435.49,151.568z" data-original="#000000" class="active-path" data-old_color="#000000" fill="#038DFE"/>
	</g>
</g><g>
	<g>
		<path d="M470.053,332.117l-46.194-13.325c11.875-11.644,19.261-27.851,19.261-45.757v-67.527c0-5.522-4.478-10-10-10h-67.038    c-28.233,0-51.202,22.969-51.202,51.202v26.325c0,17.903,7.383,34.108,19.255,45.752l-46.212,13.33    c-5.185,1.496-10.037,3.696-14.475,6.464H50.729c-16.049,0-29.265-12.368-30.615-28.073h265.554c5.522,0,10-4.478,10-10    c0-5.522-4.478-10-10-10h-14.06v-12.604c0-14.014-5.035-27.579-14.179-38.198c-9.144-10.62-21.811-17.614-35.668-19.696    l-25.78-3.873c7.945-5.545,14.198-13.045,18.255-21.632c3.708,1.91,7.907,2.996,12.357,2.996c14.932,0,27.08-12.148,27.08-27.08    v-25.177c0-14.932-12.148-27.08-27.08-27.08c-2.668,0-5.246,0.394-7.683,1.117c-3.965-26.936-27.224-47.679-55.243-47.679    c-28.02,0-51.278,20.744-55.244,47.679c-2.438-0.723-5.015-1.117-7.683-1.117c-14.932,0-27.08,12.148-27.08,27.08v25.177    c0,14.932,12.148,27.08,27.08,27.08c4.449,0,8.647-1.085,12.355-2.995c4.059,8.595,10.313,16.097,18.252,21.631l-25.775,3.872    c-13.857,2.082-26.524,9.076-35.668,19.696c-9.144,10.619-14.179,24.185-14.179,38.198v12.604h-16.14V72.615    c0-14.121,11.488-25.61,25.61-25.61h327.609c14.122,0,25.61,11.489,25.61,25.61v51.813c0,5.522,4.478,10,10,10    c5.522,0,10-4.478,10-10V72.615c0-25.149-20.461-45.61-45.61-45.61H65.195c-25.149,0-45.61,20.461-45.61,45.61v217.892H10    c-5.522,0-10,4.478-10,10v7.345c0,27.972,22.757,50.729,50.729,50.729h203.26c-5.115,8.702-8.013,18.764-8.013,29.294v87.119    c0,5.522,4.478,10,10,10H502c5.522,0,10-4.478,10-10v-87.119C512,362.169,494.751,339.24,470.053,332.117z M219.513,167.417    v-8.771v-13.402c0-3.905,3.175-7.081,7.08-7.081c3.904,0,7.08,3.176,7.08,7.08v25.177c0,3.904-3.176,7.08-7.08,7.08    s-7.08-3.176-7.08-7.08V167.417z M107.82,145.999v24.422c0,3.904-3.175,7.08-7.08,7.08c-3.904,0-7.08-3.176-7.08-7.08v-25.177    c0-3.904,3.176-7.08,7.08-7.08s7.08,3.176,7.08,7.08V145.999z M127.82,127.448c0-19.766,16.081-35.847,35.847-35.847    c16.623,0,30.636,11.375,34.672,26.749l-9.864,6.8c-4.821,3.322-10.464,5.079-16.319,5.079H127.82V127.448z M127.819,171.046    v-0.626h0.001v-20.191h44.336c9.802,0,19.25-2.908,27.356-8.405v3.419v13.402v8.771c0,3.354-2.729,6.083-6.083,6.083H177    c-5.522,0-10,4.478-10,10c0,5.522,4.478,10,10,10h14.32c-2.649,3.164-5.859,5.891-9.558,7.985    c-11.146,6.329-25.001,6.337-36.103,0.052c-0.018-0.011-0.082-0.047-0.1-0.057C134.617,195.283,127.819,183.622,127.819,171.046z     M75.726,277.903c0-19.229,13.802-35.26,32.817-38.117l34.442-5.174c4.899-0.736,8.418-4.91,8.502-9.703    c4.008,0.874,8.094,1.316,12.181,1.316c4.085,0,8.17-0.442,12.176-1.315c0.084,4.792,3.604,8.966,8.503,9.702l34.442,5.174    c19.016,2.857,32.817,18.888,32.817,38.117v12.604H75.726V277.903z M334.88,246.71c0-17.205,13.997-31.202,31.202-31.202h57.038    v57.527c0,24.328-19.792,44.12-44.12,44.12s-44.12-19.792-44.12-44.12V246.71z M265.976,464.993v-20.661H363    c5.522,0,10-4.478,10-10c0-5.522-4.478-10-10-10h-97.024v-36.458c0-16.847,11.305-31.873,27.49-36.541l54.123-15.612    c2.356-0.68,4.266-2.152,5.531-4.042c7.921,3.51,16.673,5.475,25.88,5.475c9.2,0,17.945-1.962,25.861-5.466    c1.266,1.885,3.173,3.354,5.525,4.033l54.123,15.612c16.186,4.668,27.49,19.694,27.49,36.541v77.119H265.976z" data-original="#000000" class="active-path" data-old_color="#000000" fill="#038DFE"/>
	</g>
</g><g>
	<g>
		<path d="M411.399,427.259c-1.859-1.861-4.429-2.93-7.069-2.93c-2.63,0-5.21,1.069-7.07,2.93c-1.86,1.861-2.93,4.44-2.93,7.07    s1.069,5.21,2.93,7.069c1.86,1.87,4.44,2.931,7.07,2.931s5.21-1.061,7.069-2.931c1.86-1.859,2.931-4.439,2.931-7.069    S413.26,429.12,411.399,427.259z" data-original="#000000" class="active-path" data-old_color="#000000" fill="#038DFE"/>
	</g>
</g></g> </svg>
